<?xml version="1.0" encoding="UTF-8"?>
<svg id="Camada_2" data-name="Camada 2" xmlns="http://www.w3.org/2000/svg" viewBox="0 0 215.5 209.28">
  <defs>
    <style>
      .cls-1 {
        fill: #1c1c1c;
        fill-rule: evenodd;
        stroke-width: 0px;
      }
    </style>
  </defs>
  <g id="Layer_1" data-name="Layer 1">
    <g>
      <path class="cls-1" d="m59.53,91.48c2.15-1.79,4.42-3.52,6.73-5.12V8.26L56.37,0v94.2c1.04-.93,2.1-1.84,3.17-2.72Z"/>
      <path class="cls-1" d="m70.42,83.61l.28-.18c1.27-.79,2.45-1.49,3.58-2.14l.08-66.19-4.31-3.62v72.37s.06-.04.08-.05l.29-.18Z"/>
      <path class="cls-1" d="m153.28,74.26c-51.54-2.85-106.98,35.11-114.64,88.82-1.47,13.81,2.07,35.27,9.89,46.21h49.69v-6h-43.78c-9.52-23.78-8.95-45.25,1.93-65.16v63.88h9.89v-78.23c-.18.21-.35.42-.53.63.18-.21.35-.43.53-.64h0c1.21-1.44,2.46-2.89,3.79-4.33v82.58h4.09l.11-86.91c1.14-1.12,2.3-2.22,3.49-3.31v90.22h4.08v-93.8c1.26-1.06,2.54-2.1,3.84-3.12v96.92h4.08v-99.98c1.19-.85,2.38-1.69,3.6-2.51v102.35h4.08v-104.97c1.22-.75,2.44-1.47,3.68-2.17l-.08,107.28h4.08v-109.43c1.27-.65,2.55-1.28,3.84-1.88v21.25h4.18l.02-23.08c1.23-.5,2.47-.98,3.72-1.44v24.51h4.08v-25.72c-1.29.34-2.56.72-3.83,1.11,19.79-7.11,41.21-7.31,60.67,5.11,47.14,30.09,28.99,107.36-36.26,107.36-17.4,0-11.54.05-16.95,0v-3.24s0-7.7,0-7.7h31.81v-29.07h-26.64v7.23h16.86v12.48h-22.01l.04-38.16h23.36v4.32h8.4v-13.2h-31.75l.02-19.42h-15.93c-.07,31.84-.15,63.68-.22,95.52h13.3c4.71.04,23.64,0,26.48,0,38.07.1,67.75-33.53,67.22-70.43-.44-30.95-24.96-60.78-62.21-63.87Z"/>
      <path class="cls-1" d="m30.67,180.49c-.85-8.81-.68-17.76,1.02-26.46,2.07-10.62,5.49-19.95,11.24-29.19,20.08-32.27,61.44-55.1,98.76-57.75v-9.06c-5.69-.21-12.99,1.14-20.76,3.35v-7.2l-4.08-3.42v11.85c-1.23.39-2.46.79-3.69,1.21l.02-16.14-4.25-3.56v21.19c-1.28.47-2.57.95-3.84,1.44v-25.86l-3.96-3.32-.02,30.75c-1.25.51-2.48,1.03-3.7,1.55v-35.42l-4.08-3.42v40.63c-1.23.55-2.43,1.1-3.6,1.65V27.86l-4.08-3.29v50.68c-1.34.66-2.62,1.31-3.84,1.94V21.25l-4.08-3.41v61.53c.31-.16.61-.33.92-.49-10.63,5.86-19.81,12.48-28.38,21.11-8.71,8.89-16.21,19.51-21.4,30.81-4.45,9.63-7.19,21.38-8.02,32.01-.81,11.17.15,22.51,2.74,33.4.7,2.99,1.12,4.71,1.81,7.07H0v6h37.16c-.72-2.47-1.72-5.69-2.39-8.13-1.87-6.78-3.43-13.65-4.1-20.66Z"/>
    </g>
  </g>
</svg>